<?xml version="1.0" encoding="iso-8859-1"?>
<!-- Generator: Adobe Illustrator 21.0.0, SVG Export Plug-In . SVG Version: 6.00 Build 0)  -->
<svg version="1.1" id="Layer_1" xmlns="http://www.w3.org/2000/svg" xmlns:xlink="http://www.w3.org/1999/xlink" x="0px" y="0px"
	 viewBox="0 0 100.353 100.353" style="enable-background:new 0 0 100.353 100.353;" xml:space="preserve">
<g>
	<path style="fill:#231F20;" d="M88.929,13.663H11.071c-0.829,0-1.5,0.671-1.5,1.5v69.674c0,0.828,0.671,1.5,1.5,1.5h77.858
		c0.829,0,1.5-0.672,1.5-1.5V15.163C90.429,14.334,89.758,13.663,88.929,13.663z M87.429,83.337H12.571V16.663h74.858V83.337z"/>
	<path style="fill:#231F20;" d="M49.998,72.405c11.734,0,21.384-9.067,22.325-20.561c0.049-0.148,0.082-0.304,0.082-0.468
		c0-0.095-0.011-0.187-0.028-0.277c0.018-0.364,0.028-0.73,0.028-1.098c0-12.355-10.052-22.407-22.407-22.407
		c-12.354,0-22.404,10.052-22.404,22.407C27.595,62.355,37.645,72.405,49.998,72.405z M69.399,49.876H51.498V30.67
		C61.458,31.438,69.334,39.738,69.399,49.876z M48.498,30.67v20.706c0,0.829,0.671,1.5,1.5,1.5h19.17
		c-1.397,9.337-9.448,16.529-19.17,16.529c-10.699,0-19.404-8.705-19.404-19.404C30.595,39.806,38.5,31.441,48.498,30.67z"/>
</g>
</svg>
