<svg xmlns="http://www.w3.org/2000/svg" xmlns:xlink="http://www.w3.org/1999/xlink" version="1.1" xml:space="preserve" class="u-svg-content" viewBox="0 0 512 512" id="svg-2e2d"  fill="white"><g><path d="m193.29 395.63c-42.64 0-77.33-34.69-77.33-77.33v-25.59c-62.506-3.875-116.177 46.692-115.959 109.34 0 60.4 49.14 109.53 109.53 109.53 62.65.217 113.214-53.436 109.34-115.95z"></path><path d="m262.94 146.56h-69.65c-26.1 0-47.33 21.24-47.33 47.33-.042 16.556.03 110.208 0 124.41 0 26.09 21.23 47.33 47.33 47.33 14.916-.029 107.366.021 124.4 0 26.1 0 47.33-21.24 47.33-47.33v-68.81h-102.08z"></path><path d="m292.94.42v219.07h219.06v-219.07z"></path></g></svg>