<svg xmlns="http://www.w3.org/2000/svg" xmlns:xlink="http://www.w3.org/1999/xlink" version="1.1" xml:space="preserve" class="u-svg-content" viewBox="0 0 512.001 512.001" x="0px" y="0px" id="svg-38fc" fill="white"><g>
	<g>
		<path d="M502.979,317.996L230.502,199.598c26.679-30.977,43.37-68.952,48.104-109.598h16.395c8.284,0,15-6.716,15-15V15    c0-8.284-6.716-15-15-15h-60c-8.284,0-15,6.716-15,15v60c0,8.284,6.716,15,15,15h13.362    c-5.335,38.976-23.597,74.898-52.382,102.447c-29.08,27.831-66.261,44.536-105.98,47.907v-9.265c0-8.284-6.716-15-15-15h-60    c-8.284,0-15,6.716-15,15v60c0,8.284,6.716,15,15,15h60c8.284,0,15-6.716,15-15v-20.631    c39.772-2.876,77.462-17.167,109.042-41.233l118.953,273.754c2.391,5.5,7.81,9.022,13.753,9.022c0.283,0,0.567-0.008,0.853-0.024    c6.272-0.355,11.659-4.582,13.496-10.589l27.229-89.03c5.725-18.716,20.315-33.307,39.03-39.031l89.03-27.229    c6.008-1.837,10.234-7.224,10.589-13.497C512.332,326.329,508.741,320.5,502.979,317.996z"></path>
	</g>
</g></svg>