<?xml version="1.0" encoding="utf-8"?>
<!-- Generator: Adobe Illustrator 26.0.1, SVG Export Plug-In . SVG Version: 6.00 Build 0)  -->
<svg version="1.1" id="Layer_1" xmlns="http://www.w3.org/2000/svg" xmlns:xlink="http://www.w3.org/1999/xlink" x="0px" y="0px"
	 viewBox="0 0 633 126.6" style="enable-background:new 0 0 633 126.6;" xml:space="preserve">
<style type="text/css">
	.st0{fill:#FFFFFF;}
</style>
<g>
	<path class="st0" d="M38.7,53.2l24.6-24.6l24.6,24.6l14.3-14.3L63.3,0L24.4,38.9L38.7,53.2z"/>
	<path class="st0" d="M0,63.3L14.3,49l14.3,14.3L14.3,77.6L0,63.3z"/>
	<path class="st0" d="M38.7,73.4L63.3,98l24.6-24.6l14.3,14.3l0,0l-38.9,38.9L24.4,87.7l0,0L38.7,73.4z"/>
	<path class="st0" d="M98,63.3L112.3,49l14.3,14.3l-14.3,14.3L98,63.3z"/>
	<path class="st0" d="M77.8,63.3L63.3,48.8L52.6,59.5l-1.2,1.2l-2.5,2.5l0,0l0,0l14.5,14.5L77.8,63.3L77.8,63.3L77.8,63.3z"/>
	<g transform="translate(.55)">
		<path class="st0" d="M148.4,30.7h31.1c7.7,0,13.6,2,17.5,6c3,3,4.7,7.1,4.6,11.3v0.2c0,1.7-0.2,3.4-0.7,5.1
			c-0.4,1.4-1.1,2.8-1.9,4c-0.8,1.2-1.7,2.2-2.8,3.1c-1,0.9-2.2,1.7-3.4,2.3c3.5,1.2,6.7,3.3,9.2,6c2.2,2.5,3.3,6,3.3,10.5v0.2
			c0.1,2.8-0.5,5.6-1.8,8.1c-1.2,2.3-2.9,4.3-5.1,5.8c-2.4,1.6-5.1,2.8-7.9,3.4c-3.4,0.8-6.8,1.2-10.3,1.2h-31.9L148.4,30.7z
			 M176.4,57.8c2.7,0.1,5.4-0.4,7.8-1.7c1.9-1.1,3-3.2,2.9-5.4v-0.2c0.1-2-0.8-4-2.5-5.1c-1.7-1.2-4.1-1.8-7.2-1.8h-14.6v14.2H176.4
			z M180.3,84.9c2.7,0.2,5.4-0.5,7.7-1.8c1.9-1.2,2.9-3.3,2.8-5.5v-0.2c0.1-2.1-0.9-4.1-2.6-5.3c-1.7-1.3-4.5-2-8.3-2h-17.1v14.8
			L180.3,84.9z"/>
		<path class="st0" d="M223.9,30.7h14.8v67.1h-14.8V30.7z"/>
		<path class="st0" d="M261,30.7h13.6L306.1,72V30.7h14.6v67.1h-12.6l-32.5-42.7v42.7H261L261,30.7z"/>
		<path class="st0" d="M365.4,30.2H379l28.8,67.6h-15.4l-6.1-15.1h-28.4l-6.1,15.1h-15.1L365.4,30.2z M380.9,69.7L372,47.9
			l-8.9,21.8H380.9z"/>
		<path class="st0" d="M423.7,30.7h13.6L468.8,72V30.7h14.6v67.1h-12.6l-32.5-42.7v42.7h-14.6L423.7,30.7z"/>
		<path class="st0" d="M536.6,99c-4.7,0-9.4-0.9-13.7-2.7c-8.3-3.4-14.8-10-18.1-18.3c-1.7-4.3-2.6-8.9-2.6-13.5v-0.2
			c-0.1-9.1,3.4-17.9,9.8-24.5c3.1-3.2,6.9-5.8,11-7.5c4.5-1.9,9.3-2.8,14.2-2.7c2.9,0,5.8,0.2,8.6,0.8c2.4,0.5,4.8,1.2,7.1,2.1
			c2.1,0.9,4,2,5.8,3.3c1.8,1.3,3.5,2.7,5,4.2l-9.4,10.8c-2.4-2.2-5.1-4.1-8-5.6c-2.9-1.4-6-2.1-9.2-2c-5.3-0.1-10.4,2.2-14,6.1
			c-1.7,2-3.1,4.2-4,6.7c-1,2.6-1.4,5.3-1.4,8.1v0.2c0,2.8,0.5,5.5,1.4,8.1c0.9,2.5,2.3,4.7,4,6.7c3.5,4,8.6,6.3,14,6.2
			c3.4,0.1,6.7-0.6,9.7-2.1c2.9-1.6,5.5-3.5,7.9-5.8L564,87c-1.7,1.8-3.5,3.5-5.4,5c-1.9,1.5-3.9,2.8-6.1,3.8
			c-2.3,1.1-4.7,1.9-7.2,2.4C542.4,98.7,539.5,99,536.6,99z"/>
		<path class="st0" d="M581.5,30.7H632v13.1h-36v13.6h31.7v13.1H596v14.1h36.5v13.1h-51L581.5,30.7z"/>
	</g>
</g>
</svg>
