<?xml version="1.0" encoding="utf-8"?>
<!-- Generator: Adobe Illustrator 26.0.1, SVG Export Plug-In . SVG Version: 6.00 Build 0)  -->
<svg version="1.1" id="Layer_1" xmlns="http://www.w3.org/2000/svg" xmlns:xlink="http://www.w3.org/1999/xlink" x="0px" y="0px"
	 viewBox="0 0 128 128" style="enable-background:new 0 0 128 128;" xml:space="preserve">
<style type="text/css">
	.st0{fill:#FFFFFF;}
</style>
<g transform="translate(0.000000,128.000000) scale(0.100000,-0.100000)">
	<path class="st0" d="M821,1145c-128-144-139-167-101-205c13-13,33-20,60-20h40V489V58l29-29C877,2,883,0,960,0s83,2,111,29l29,29
		v431v431h40c47,0,80,27,80,65c0,31-232,295-260,295C949,1280,893,1225,821,1145z"/>
	<path class="st0" d="M469,771l-29-29V400V58l29-29C497,2,503,0,580,0s83,2,111,29l29,29v342v342l-29,29c-28,27-34,29-111,29
		S497,798,469,771z"/>
	<path class="st0" d="M89,571l-29-29V300V58l29-29C117,2,123,0,200,0s83,2,111,29l29,29v242v242l-29,29c-28,27-34,29-111,29
		S117,598,89,571z"/>
</g>
</svg>
