<svg width="183" height="47" viewBox="0 0 183 47" fill="none" xmlns="http://www.w3.org/2000/svg">
<path d="M0.272727 8.56818V0.454544H38.5V8.56818H24.25V47H14.5227V8.56818H0.272727ZM44.7955 47V0.454544H76.1591V8.56818H54.6364V19.6591H74.5455V27.7727H54.6364V38.8864H76.25V47H44.7955ZM92.0057 47H81.4602L97.5284 0.454544H110.21L126.256 47H115.71L104.051 11.0909H103.688L92.0057 47ZM91.3466 28.7045H116.256V36.3864H91.3466V28.7045ZM131.858 0.454544H143.994L156.812 31.7273H157.358L170.176 0.454544H182.312V47H172.767V16.7045H172.381L160.335 46.7727H153.835L141.79 16.5909H141.403V47H131.858V0.454544Z" fill="white"/>
</svg>
